<?xml version="1.0" encoding="UTF-8"?>
<!DOCTYPE svg PUBLIC "-//W3C//DTD SVG 1.1//EN" "http://www.w3.org/Graphics/SVG/1.1/DTD/svg11.dtd">
<!-- Creator: CorelDRAW 2020 (64-Bit) -->
<svg xmlns="http://www.w3.org/2000/svg" xml:space="preserve" width="241px" height="70px" version="1.1" style="shape-rendering:geometricPrecision; text-rendering:geometricPrecision; image-rendering:optimizeQuality; fill-rule:evenodd; clip-rule:evenodd"
viewBox="0 0 241 69.999"
 xmlns:xlink="http://www.w3.org/1999/xlink"
 xmlns:xodm="http://www.corel.com/coreldraw/odm/2003">
 <defs>
  <style type="text/css">
   <![CDATA[
    .fil2 {fill:none;fill-rule:nonzero}
    .fil6 {fill:#05577C}
    .fil5 {fill:#FEFEFE}
    .fil3 {fill:#004460;fill-rule:nonzero}
    .fil0 {fill:#05577C;fill-rule:nonzero}
    .fil4 {fill:#DA3824;fill-rule:nonzero}
    .fil1 {fill:#DE2E24;fill-rule:nonzero}
    .fil7 {fill:#FEFEFE;fill-rule:nonzero}
   ]]>
  </style>
 </defs>
 <g id="Layer_x0020_1">
  <metadata id="CorelCorpID_0Corel-Layer"/>
  <g id="_2353178930352">
   <g>
    <path class="fil0" d="M42.566 0.182c-19.198,0 -34.818,15.619 -34.818,34.818 0,19.198 15.62,34.817 34.818,34.817 19.198,0 34.818,-15.619 34.818,-34.817 0,-19.199 -15.62,-34.818 -34.818,-34.818zm0 67.697l0 0c-18.13,0 -32.879,-14.75 -32.879,-32.879 0,-18.13 14.749,-32.879 32.879,-32.879 18.129,0 32.879,14.749 32.879,32.879 0,18.129 -14.75,32.879 -32.879,32.879z"/>
    <path class="fil1" d="M42.566 3.099c-17.59,0 -31.901,14.311 -31.901,31.901 0,17.589 14.311,31.9 31.901,31.9 17.589,0 31.9,-14.311 31.9,-31.9 0,-17.59 -14.311,-31.901 -31.9,-31.901zm0 63.397l0 0c-17.368,0 -31.497,-14.129 -31.497,-31.496 0,-17.367 14.129,-31.497 31.497,-31.497 17.367,0 31.496,14.13 31.496,31.497 0,17.367 -14.129,31.496 -31.496,31.496z"/>
    <path class="fil1" d="M0 28.311l5.539 6.447 -5.539 6.702 23.127 0c-0.619,-2.076 -0.954,-4.284 -0.954,-6.575 0,-2.291 0.335,-4.499 0.954,-6.574l-23.127 0z"/>
    <path class="fil2" d="M13.622 33.09c0,15.985 12.959,28.943 28.944,28.943 15.984,0 28.943,-12.958 28.943,-28.943l-57.887 0"/>
    <path class="fil1" d="M62.033 28.311c0.619,2.075 0.954,4.283 0.954,6.574 0,2.291 -0.335,4.499 -0.954,6.575l23.127 0 -5.54 -6.448 5.54 -6.701 -23.127 0z"/>
    <path class="fil2" d="M18.808 34.885c0,-13.121 10.636,-23.757 23.758,-23.757 13.121,0 23.757,10.636 23.757,23.757l-47.515 0"/>
    <polygon class="fil3" points="67.089,22.743 65.909,23.136 65.169,22.135 65.179,23.379 63.998,23.773 65.185,24.148 65.195,25.392 65.918,24.38 67.104,24.755 66.365,23.754 "/>
    <polygon class="fil4" points="19.841,45.168 19.102,46.169 17.922,45.776 18.645,46.788 17.906,47.788 19.092,47.413 19.816,48.425 19.825,47.181 21.011,46.806 19.831,46.412 "/>
    <polygon class="fil4" points="67.198,45.776 66.017,46.169 65.279,45.168 65.288,46.412 64.107,46.806 65.293,47.181 65.303,48.425 66.027,47.413 67.213,47.788 66.474,46.788 "/>
    <path class="fil0" d="M42.566 14.193c-11.428,0 -20.693,9.264 -20.693,20.692 0,11.429 9.265,20.693 20.693,20.693 11.428,0 20.692,-9.264 20.692,-20.693 0,-11.428 -9.264,-20.692 -20.692,-20.692z"/>
    <polygon class="fil3" points="20.996,22.743 19.816,23.136 19.077,22.135 19.086,23.379 17.906,23.773 19.092,24.148 19.101,25.392 19.825,24.38 21.011,24.755 20.273,23.754 "/>
    <path class="fil1" d="M25.939 10.233l4.002 5.707 -1.144 0.802 -4.003 -5.706 1.145 -0.803zm8.447 1.954l-2.53 1.143 0.128 1.399 -1.338 0.605 -0.589 -7.393 1.483 -0.671 5.158 5.329 -1.347 0.609 -0.965 -1.021 0 0zm-0.807 -0.863l-2.119 -2.242 0.281 3.072 1.838 -0.83 0 0zm3.565 -2.291c-0.052,-0.684 0.056,-1.308 0.324,-1.872 0.267,-0.565 0.657,-1.018 1.168,-1.361 0.512,-0.342 1.099,-0.538 1.763,-0.589 0.777,-0.059 1.472,0.089 2.087,0.443 0.614,0.354 1.064,0.873 1.35,1.56l-1.603 0.121c-0.184,-0.32 -0.428,-0.551 -0.729,-0.695 -0.301,-0.145 -0.641,-0.202 -1.019,-0.173 -0.405,0.03 -0.758,0.152 -1.059,0.365 -0.301,0.213 -0.527,0.499 -0.676,0.858 -0.15,0.358 -0.207,0.77 -0.172,1.234 0.035,0.458 0.153,0.855 0.355,1.19 0.203,0.335 0.469,0.586 0.799,0.75 0.329,0.166 0.697,0.233 1.101,0.202 0.379,-0.028 0.706,-0.138 0.982,-0.329 0.275,-0.191 0.481,-0.459 0.615,-0.803l1.603 -0.121c-0.179,0.727 -0.543,1.311 -1.094,1.749 -0.551,0.44 -1.218,0.689 -2.001,0.748 -0.664,0.051 -1.275,-0.055 -1.832,-0.316 -0.557,-0.262 -1.011,-0.649 -1.36,-1.164 -0.349,-0.514 -0.55,-1.114 -0.602,-1.797l0 0zm10.587 3.767c-0.473,-0.107 -0.881,-0.286 -1.224,-0.534 -0.343,-0.249 -0.59,-0.551 -0.741,-0.907 -0.152,-0.355 -0.183,-0.741 -0.095,-1.158l1.46 0.333c-0.043,0.283 0.005,0.526 0.147,0.73 0.141,0.202 0.368,0.339 0.68,0.41 0.318,0.073 0.584,0.053 0.801,-0.058 0.217,-0.111 0.353,-0.29 0.409,-0.537 0.046,-0.201 0.022,-0.381 -0.072,-0.538 -0.094,-0.158 -0.224,-0.295 -0.392,-0.412 -0.168,-0.117 -0.404,-0.258 -0.708,-0.423 -0.412,-0.23 -0.741,-0.44 -0.989,-0.629 -0.246,-0.19 -0.44,-0.435 -0.579,-0.737 -0.14,-0.301 -0.161,-0.666 -0.063,-1.095 0.091,-0.402 0.272,-0.729 0.541,-0.982 0.269,-0.253 0.603,-0.418 1.003,-0.494 0.4,-0.076 0.833,-0.061 1.301,0.046 0.701,0.159 1.232,0.459 1.592,0.9 0.361,0.44 0.494,0.971 0.4,1.591l-1.499 -0.341c0.04,-0.236 -0.014,-0.452 -0.164,-0.647 -0.151,-0.195 -0.379,-0.326 -0.684,-0.396 -0.266,-0.061 -0.494,-0.041 -0.684,0.059 -0.19,0.1 -0.315,0.28 -0.374,0.54 -0.041,0.182 -0.015,0.346 0.077,0.493 0.092,0.148 0.22,0.279 0.381,0.395 0.162,0.115 0.394,0.258 0.697,0.429 0.411,0.231 0.742,0.443 0.991,0.636 0.25,0.193 0.446,0.443 0.588,0.748 0.142,0.306 0.165,0.67 0.069,1.091 -0.083,0.363 -0.254,0.68 -0.513,0.949 -0.259,0.268 -0.592,0.454 -0.997,0.556 -0.406,0.102 -0.858,0.097 -1.359,-0.018l0 0zm9.15 -3.959c0.636,0.363 1.125,0.807 1.465,1.331 0.341,0.525 0.511,1.092 0.512,1.702 0.001,0.609 -0.172,1.218 -0.519,1.824 -0.347,0.608 -0.781,1.063 -1.303,1.366 -0.523,0.304 -1.096,0.442 -1.721,0.415 -0.624,-0.027 -1.255,-0.222 -1.891,-0.586l-2.116 -1.208 3.458 -6.053 2.115 1.209 0 0zm-2.911 4.996c0.636,0.363 1.227,0.47 1.772,0.322 0.545,-0.149 0.997,-0.538 1.357,-1.169 0.359,-0.63 0.468,-1.221 0.324,-1.775 -0.144,-0.554 -0.534,-1.013 -1.17,-1.375l-0.858 -0.491 -2.283 3.998 0.858 0.49z"/>
    <g>
     <path class="fil0" d="M23.663 50.698c-0.896,0.744 -1.792,1.488 -2.688,2.232 -0.146,-0.176 -0.29,-0.353 -0.431,-0.533 0.914,-0.721 1.827,-1.443 2.74,-2.165 0.125,0.157 0.251,0.313 0.378,0.466l0.001 0zm1.241 1.385c-0.837,0.809 -1.675,1.619 -2.511,2.428 -0.157,-0.162 -0.313,-0.328 -0.468,-0.494 0.857,-0.789 1.714,-1.578 2.569,-2.367 0.135,0.146 0.271,0.29 0.41,0.433zm2.034 3.091c0.085,-0.111 0.171,-0.221 0.256,-0.332 -0.659,-0.511 -1.294,-1.054 -1.898,-1.628 0.117,-0.124 0.234,-0.248 0.351,-0.371 0.84,0.796 1.736,1.533 2.68,2.202 -0.099,0.14 -0.198,0.279 -0.296,0.418 -0.11,-0.079 -0.22,-0.158 -0.329,-0.238 -0.586,0.797 -1.171,1.593 -1.756,2.39 -0.191,-0.141 -0.38,-0.284 -0.567,-0.429 0.412,-0.531 0.824,-1.063 1.236,-1.595 -0.387,-0.3 -0.766,-0.611 -1.136,-0.933 -0.052,-0.044 -0.117,-0.086 -0.187,-0.084 -0.061,0.002 -0.11,0.027 -0.149,0.072 -0.028,0.031 -0.052,0.067 -0.064,0.107 -0.012,0.037 -0.017,0.075 -0.015,0.114 0.066,0.036 0.13,0.073 0.191,0.116 0.063,0.044 0.123,0.092 0.181,0.142 0.175,0.148 0.304,0.33 0.339,0.561 0.035,0.225 -0.036,0.425 -0.176,0.601 -0.079,0.098 -0.175,0.182 -0.291,0.231 -0.107,0.046 -0.22,0.067 -0.336,0.063 -0.122,-0.003 -0.239,-0.028 -0.352,-0.07 -0.117,-0.044 -0.228,-0.103 -0.329,-0.176 0.039,0.248 0.083,0.495 0.129,0.741 -0.214,-0.01 -0.427,-0.024 -0.641,-0.039 0.019,-0.362 0.045,-0.722 0.077,-1.082 -0.056,-0.064 -0.106,-0.135 -0.146,-0.212 -0.036,-0.07 -0.063,-0.145 -0.076,-0.225 -0.012,-0.07 -0.012,-0.141 0.003,-0.212 0.015,-0.068 0.048,-0.127 0.096,-0.178 0.07,-0.075 0.155,-0.119 0.259,-0.119 0.11,-0.001 0.205,0.052 0.284,0.124 0.007,0.184 0.016,0.367 0.026,0.55 0.054,0.052 0.114,0.098 0.176,0.138 0.066,0.044 0.137,0.08 0.211,0.107 0.067,0.025 0.138,0.037 0.209,0.032 0.066,-0.006 0.121,-0.032 0.164,-0.083 0.052,-0.062 0.078,-0.134 0.066,-0.214 -0.015,-0.099 -0.11,-0.194 -0.181,-0.256 -0.059,-0.05 -0.121,-0.096 -0.187,-0.134 -0.068,-0.037 -0.136,-0.073 -0.205,-0.108 -0.019,-0.087 -0.034,-0.175 -0.044,-0.263 -0.01,-0.089 -0.011,-0.178 -0.001,-0.267 0.009,-0.086 0.029,-0.17 0.061,-0.25 0.033,-0.084 0.083,-0.157 0.144,-0.223 0.13,-0.14 0.29,-0.232 0.485,-0.226 0.193,0.006 0.358,0.09 0.501,0.216 0.401,0.354 0.814,0.694 1.236,1.022l0.001 0zm1.341 0.463c-0.11,-0.077 -0.219,-0.153 -0.328,-0.231 0.1,-0.138 0.199,-0.277 0.298,-0.416 0.373,0.267 0.754,0.524 1.142,0.77 -0.092,0.144 -0.183,0.288 -0.275,0.432 -0.113,-0.073 -0.227,-0.146 -0.34,-0.22 -0.543,0.826 -1.086,1.652 -1.629,2.478 -0.186,-0.123 -0.372,-0.248 -0.556,-0.376 0.563,-0.812 1.125,-1.625 1.688,-2.437l0 0zm1.853 2.15c0.137,-0.251 0.274,-0.503 0.411,-0.754 -0.513,-0.28 -1.017,-0.578 -1.509,-0.893 0.092,-0.144 0.184,-0.288 0.276,-0.431 0.758,0.485 1.543,0.929 2.35,1.328 -0.075,0.153 -0.151,0.306 -0.227,0.459 -0.12,-0.06 -0.241,-0.121 -0.36,-0.183 -0.453,0.879 -0.906,1.758 -1.358,2.636 -0.199,-0.102 -0.396,-0.206 -0.592,-0.313 0.252,-0.462 0.504,-0.924 0.756,-1.386 -0.248,-0.135 -0.494,-0.274 -0.738,-0.418 -0.072,0.143 -0.144,0.286 -0.216,0.429 -0.033,0.009 -0.089,0.004 -0.124,-0.001 -0.065,-0.008 -0.127,-0.034 -0.183,-0.067 -0.139,-0.084 -0.23,-0.205 -0.258,-0.365 -0.03,-0.169 0.017,-0.327 0.107,-0.469 0.069,-0.109 0.162,-0.203 0.29,-0.232 0.135,-0.032 0.274,0.024 0.387,0.093 0.325,0.197 0.655,0.386 0.988,0.567l0 0zm1.573 -0.159c-0.014,-0.007 -0.072,-0.037 -0.081,-0.04 -0.033,-0.007 -0.232,-0.113 -0.277,-0.136 0.076,-0.152 0.152,-0.305 0.228,-0.457 0.047,0.023 0.246,0.113 0.272,0.133 0.323,0.156 0.645,0.303 0.974,0.446 -0.068,0.157 -0.136,0.313 -0.203,0.47 -0.124,-0.053 -0.247,-0.108 -0.37,-0.163 -0.407,0.901 -0.813,1.801 -1.219,2.703 -0.203,-0.092 -0.406,-0.186 -0.607,-0.283 0.428,-0.891 0.855,-1.782 1.283,-2.673l0 0zm3.018 0.676c0.311,0.105 0.625,0.203 0.94,0.295 -0.048,0.163 -0.096,0.327 -0.144,0.491 -0.13,-0.038 -0.259,-0.077 -0.388,-0.117 -0.293,0.944 -0.585,1.888 -0.878,2.832 -0.214,-0.066 -0.427,-0.135 -0.639,-0.206 0.066,-0.196 0.132,-0.392 0.198,-0.588 -0.085,0.031 -0.237,0.026 -0.326,0.02 -0.182,-0.01 -0.369,-0.061 -0.54,-0.124 -0.285,-0.107 -0.578,-0.274 -0.744,-0.539 -0.145,-0.231 -0.149,-0.474 -0.044,-0.722 0.054,-0.129 0.14,-0.232 0.266,-0.295 0.118,-0.06 0.243,-0.086 0.376,-0.076 -0.116,-0.113 -0.193,-0.252 -0.237,-0.406 -0.054,-0.183 -0.018,-0.369 0.055,-0.541 0.044,-0.102 0.103,-0.196 0.181,-0.275 0.073,-0.075 0.158,-0.135 0.255,-0.176 0.096,-0.042 0.198,-0.062 0.303,-0.064 0.114,-0.002 0.227,0.023 0.333,0.065 0.108,0.041 0.209,0.1 0.29,0.183 0.072,0.072 0.13,0.155 0.169,0.25 0.038,0.091 0.057,0.186 0.058,0.284 0.001,0.095 -0.013,0.19 -0.045,0.281 -0.033,0.094 -0.079,0.185 -0.147,0.26 -0.045,0.049 -0.102,0.106 -0.163,0.138 -0.131,-0.103 -0.261,-0.207 -0.39,-0.313 0.041,-0.024 0.077,-0.057 0.107,-0.093 0.036,-0.042 0.063,-0.091 0.083,-0.143 0.025,-0.069 0.038,-0.144 0.015,-0.215 -0.021,-0.068 -0.073,-0.11 -0.138,-0.135 -0.066,-0.025 -0.131,-0.015 -0.192,0.016 -0.084,0.041 -0.135,0.134 -0.168,0.217 -0.062,0.155 -0.075,0.314 0.004,0.466 0.08,0.158 0.229,0.255 0.391,0.315 0.09,0.033 0.18,0.066 0.271,0.098 -0.058,0.162 -0.116,0.325 -0.174,0.487 -0.15,-0.054 -0.3,-0.108 -0.449,-0.165 -0.09,-0.034 -0.197,-0.059 -0.292,-0.033 -0.073,0.02 -0.129,0.062 -0.158,0.134 -0.038,0.099 -0.019,0.189 0.046,0.271 0.085,0.109 0.236,0.182 0.363,0.228 0.146,0.054 0.299,0.085 0.455,0.092 0.127,0.005 0.266,-0.008 0.38,-0.068 0.239,-0.71 0.478,-1.42 0.717,-2.129l0 0zm1.088 0.869c-0.129,-0.036 -0.258,-0.073 -0.385,-0.111 0.048,-0.163 0.096,-0.326 0.145,-0.49 0.108,0.032 0.217,0.064 0.326,0.095 0.002,-0.102 0.001,-0.205 -0.004,-0.307 -0.004,-0.095 -0.017,-0.191 -0.041,-0.284 -0.02,-0.078 -0.051,-0.155 -0.098,-0.221 -0.041,-0.062 -0.098,-0.104 -0.169,-0.125 -0.08,-0.025 -0.156,-0.019 -0.227,0.026 -0.081,0.05 -0.129,0.141 -0.157,0.23 -0.029,0.091 -0.048,0.188 -0.048,0.284 0,0.088 0.007,0.175 0.024,0.261 -0.16,0.04 -0.321,0.078 -0.482,0.113 -0.008,-0.029 -0.017,-0.059 -0.026,-0.088 -0.033,-0.128 -0.048,-0.261 -0.047,-0.392 0.002,-0.137 0.026,-0.271 0.07,-0.4 0.038,-0.109 0.092,-0.212 0.164,-0.303 0.065,-0.082 0.143,-0.151 0.235,-0.202 0.09,-0.049 0.188,-0.078 0.29,-0.087 0.111,-0.011 0.22,0.005 0.326,0.037 0.148,0.046 0.278,0.122 0.379,0.242 0.098,0.115 0.17,0.246 0.219,0.389 0.052,0.153 0.083,0.312 0.097,0.474 0.013,0.163 0.018,0.329 0.013,0.493 0.162,0.042 0.325,0.082 0.489,0.12 -0.04,0.167 -0.079,0.332 -0.118,0.498 -0.132,-0.031 -0.264,-0.063 -0.395,-0.097 -0.243,0.959 -0.486,1.916 -0.729,2.874 -0.218,-0.055 -0.434,-0.112 -0.65,-0.173 0.266,-0.952 0.532,-1.904 0.798,-2.856l0.001 0zm2.467 1.43c0.048,-0.283 0.096,-0.566 0.143,-0.848 -0.581,-0.097 -1.158,-0.215 -1.73,-0.352 0.04,-0.166 0.08,-0.332 0.119,-0.498 0.883,0.212 1.777,0.376 2.678,0.49 -0.021,0.169 -0.043,0.338 -0.064,0.507 -0.135,-0.017 -0.27,-0.035 -0.406,-0.055 -0.139,0.979 -0.279,1.957 -0.418,2.936 -0.223,-0.032 -0.447,-0.066 -0.669,-0.103 0.086,-0.52 0.174,-1.038 0.261,-1.557 -0.281,-0.047 -0.562,-0.099 -0.841,-0.155 -0.022,0.159 -0.043,0.317 -0.064,0.476 -0.029,0.02 -0.084,0.033 -0.118,0.04 -0.065,0.013 -0.132,0.009 -0.196,-0.004 -0.16,-0.034 -0.285,-0.119 -0.366,-0.262 -0.084,-0.149 -0.091,-0.314 -0.053,-0.478 0.03,-0.125 0.087,-0.244 0.199,-0.315 0.118,-0.073 0.268,-0.065 0.399,-0.037 0.374,0.08 0.749,0.151 1.126,0.215l0 0zm0.3 -2.129c0.008,-0.047 0.025,-0.091 0.049,-0.133 0.024,-0.041 0.053,-0.078 0.088,-0.109 0.035,-0.031 0.075,-0.055 0.119,-0.071 0.046,-0.018 0.092,-0.022 0.14,-0.015 0.047,0.008 0.09,0.026 0.128,0.056 0.037,0.029 0.068,0.064 0.092,0.104 0.024,0.041 0.041,0.085 0.049,0.132 0.009,0.046 0.01,0.093 0.004,0.14 -0.014,0.102 -0.056,0.191 -0.132,0.261 -0.074,0.067 -0.162,0.092 -0.261,0.076 -0.099,-0.015 -0.175,-0.065 -0.227,-0.151 -0.053,-0.09 -0.066,-0.188 -0.049,-0.29l0 0zm4.851 2.71c0.073,0.055 0.133,0.14 0.18,0.217 0.069,0.115 0.094,0.256 0.1,0.387 0.006,0.129 -0.014,0.255 -0.065,0.374 -0.049,0.114 -0.121,0.213 -0.214,0.296 -0.1,0.088 -0.217,0.152 -0.342,0.196 -0.143,0.051 -0.294,0.073 -0.445,0.073 -0.015,0 -0.068,-0.003 -0.077,-0.001 -0.064,0.011 -0.3,-0.044 -0.369,-0.067 -0.127,-0.043 -0.248,-0.103 -0.355,-0.186 -0.101,-0.079 -0.186,-0.173 -0.254,-0.28 -0.069,-0.109 -0.121,-0.226 -0.158,-0.35 0.156,-0.076 0.31,-0.154 0.464,-0.234 0.064,0.157 0.152,0.318 0.279,0.432 0.122,0.104 0.233,0.143 0.393,0.147 0,0 0.005,0 0.005,0 0.128,0 0.248,-0.033 0.344,-0.121 0.099,-0.091 0.131,-0.215 0.129,-0.345 -0.003,-0.154 -0.052,-0.292 -0.175,-0.39 -0.06,-0.048 -0.228,-0.128 -0.303,-0.123 -0.054,-0.008 -0.102,-0.011 -0.157,-0.011 -0.062,-0.001 -0.124,-0.001 -0.187,-0.002 0.003,-0.172 0.004,-0.345 0.007,-0.517 0.058,0.001 0.301,-0.006 0.337,0.002 0.502,0 0.994,-0.015 1.496,-0.043 -0.011,-0.194 -0.023,-0.387 -0.034,-0.582 -0.489,0.029 -0.972,0.042 -1.462,0.043 -0.379,-0.001 -0.752,-0.009 -1.13,-0.025 0.007,-0.171 0.015,-0.341 0.023,-0.511 0.37,0.016 0.736,0.024 1.107,0.025 0.824,-0.003 1.608,-0.042 2.428,-0.12 0.017,0.169 0.033,0.339 0.05,0.509 -0.136,0.013 -0.272,0.026 -0.408,0.037 0.081,0.985 0.163,1.97 0.244,2.955 -0.227,0.019 -0.453,0.035 -0.679,0.048 -0.037,-0.621 -0.073,-1.242 -0.109,-1.863 -0.221,0.013 -0.442,0.023 -0.663,0.03l0 0zm2.418 -0.043c0.031,-0.048 0.046,-0.123 0.056,-0.178 0.015,-0.095 0.01,-0.196 -0.002,-0.29 -0.02,-0.151 -0.061,-0.298 -0.132,-0.433 -0.06,-0.114 -0.131,-0.224 -0.22,-0.318 -0.2,0.024 -0.402,0.045 -0.603,0.065 -0.016,-0.17 -0.032,-0.34 -0.049,-0.51 0.978,-0.093 1.949,-0.245 2.908,-0.454 0.036,0.167 0.073,0.333 0.11,0.5 -0.133,0.029 -0.266,0.057 -0.399,0.084 0.195,0.968 0.39,1.937 0.585,2.907 -0.221,0.044 -0.442,0.086 -0.664,0.125 -0.171,-0.973 -0.343,-1.947 -0.514,-2.92 -0.25,0.044 -0.501,0.084 -0.753,0.121 0.085,0.086 0.157,0.213 0.213,0.32 0.086,0.167 0.136,0.357 0.165,0.542 0.024,0.154 0.031,0.314 0.007,0.469 -0.021,0.128 -0.058,0.254 -0.125,0.365 -0.059,0.099 -0.136,0.182 -0.233,0.245 -0.094,0.061 -0.198,0.097 -0.31,0.111 -0.162,0.02 -0.316,-0.009 -0.45,-0.104 -0.13,-0.093 -0.198,-0.222 -0.214,-0.38 -0.011,-0.114 0.005,-0.228 0.082,-0.317 0.065,-0.075 0.145,-0.123 0.244,-0.134 0.099,0.062 0.198,0.123 0.298,0.184zm3.542 -0.79c-0.132,0.035 -0.261,0.1 -0.329,0.224 -0.066,0.121 -0.062,0.26 -0.029,0.391 0.048,0.194 0.133,0.372 0.252,0.531 0.133,0.178 0.287,0.342 0.45,0.491 -0.17,0.132 -0.342,0.262 -0.516,0.389 -0.094,-0.082 -0.182,-0.17 -0.265,-0.264 -0.087,-0.098 -0.168,-0.203 -0.241,-0.312 -0.076,-0.112 -0.142,-0.229 -0.198,-0.352 -0.057,-0.123 -0.1,-0.253 -0.13,-0.386 -0.059,-0.266 -0.06,-0.554 0.103,-0.785 0.152,-0.217 0.376,-0.339 0.629,-0.406 0.236,-0.062 0.473,-0.128 0.709,-0.197 -0.059,-0.199 -0.117,-0.397 -0.176,-0.595 -0.604,0.177 -1.214,0.332 -1.83,0.464 -0.035,-0.167 -0.071,-0.333 -0.107,-0.5 0.925,-0.198 1.837,-0.449 2.732,-0.752 0.055,0.162 0.109,0.323 0.164,0.485 -0.128,0.043 -0.256,0.085 -0.385,0.126 0.302,0.941 0.603,1.883 0.905,2.824 -0.213,0.068 -0.427,0.134 -0.642,0.197 -0.17,-0.579 -0.341,-1.158 -0.511,-1.738 -0.195,0.058 -0.39,0.112 -0.585,0.165l0 0zm4.911 -0.127c-0.13,0.191 -0.263,0.381 -0.398,0.568 -0.502,-0.319 -0.995,-0.654 -1.477,-1.004 -0.068,-0.048 -0.142,-0.105 -0.199,-0.167 -0.041,-0.045 -0.076,-0.096 -0.098,-0.154 -0.034,-0.086 -0.029,-0.168 0.02,-0.248 0.053,-0.088 0.144,-0.145 0.238,-0.183 0.042,0.026 0.083,0.052 0.125,0.078 0.086,0.058 0.184,0.088 0.284,0.046 0.096,-0.04 0.155,-0.114 0.182,-0.214 0.033,-0.125 -0.01,-0.268 -0.061,-0.383 -0.051,-0.118 -0.119,-0.232 -0.207,-0.325 -0.064,-0.067 -0.137,-0.137 -0.214,-0.186 -0.306,0.132 -0.614,0.257 -0.925,0.377 -0.061,-0.159 -0.123,-0.319 -0.184,-0.477 0.611,-0.237 1.192,-0.487 1.784,-0.768 0.447,-0.216 0.879,-0.438 1.314,-0.678 0.083,0.149 0.166,0.299 0.248,0.448 -0.118,0.065 -0.236,0.129 -0.355,0.193 0.465,0.872 0.93,1.744 1.395,2.616 -0.197,0.105 -0.395,0.208 -0.594,0.308 -0.193,-0.384 -0.387,-0.768 -0.58,-1.152 -0.04,0.05 -0.092,0.094 -0.143,0.132 -0.077,0.058 -0.167,0.106 -0.253,0.148 -0.01,0.005 -0.051,0.021 -0.057,0.026 -0.041,0.03 -0.251,0.078 -0.31,0.087 -0.119,0.019 -0.242,0.024 -0.362,0.004 -0.039,0.059 -0.087,0.113 -0.144,0.156 -0.053,0.041 -0.111,0.075 -0.173,0.102 -0.011,0.005 -0.022,0.01 -0.033,0.015 0.387,0.221 0.78,0.432 1.177,0.635l0 0zm-0.4 -1.489c0.002,-0.002 0.008,-0.005 0.009,-0.005 0.055,-0.013 0.218,-0.131 0.263,-0.176 0.059,-0.059 0.109,-0.126 0.14,-0.204 -0.155,-0.309 -0.311,-0.619 -0.467,-0.928 -0.151,0.076 -0.303,0.15 -0.455,0.223 -0.032,0.025 -0.282,0.133 -0.339,0.16 0.076,0.047 0.154,0.124 0.216,0.187 0.104,0.105 0.183,0.239 0.245,0.372 0.035,0.075 0.064,0.154 0.082,0.235 0.016,0.071 0.028,0.144 0.029,0.218 0.048,-0.003 0.096,-0.012 0.142,-0.028 0.046,-0.015 0.091,-0.034 0.135,-0.054zm1.96 -1.992c0.098,-0.059 0.212,-0.117 0.326,-0.138 0.093,-0.017 0.187,-0.024 0.281,-0.017 -0.104,-0.162 -0.208,-0.324 -0.312,-0.485 -0.492,0.316 -0.995,0.615 -1.508,0.897 -0.082,-0.149 -0.164,-0.299 -0.246,-0.448 0.789,-0.433 1.553,-0.909 2.29,-1.426 0.098,0.139 0.196,0.279 0.294,0.418 -0.109,0.077 -0.219,0.153 -0.33,0.228 0.555,0.818 1.11,1.636 1.664,2.454 -0.184,0.125 -0.371,0.249 -0.559,0.37 -0.121,-0.188 -0.242,-0.376 -0.362,-0.563 -0.017,0.068 -0.068,0.145 -0.109,0.201 -0.071,0.1 -0.178,0.18 -0.281,0.243 -0.124,0.077 -0.26,0.134 -0.403,0.165 -0.137,0.03 -0.276,0.034 -0.414,0.009 -0.139,-0.026 -0.266,-0.085 -0.378,-0.17 -0.129,-0.096 -0.228,-0.225 -0.307,-0.365 -0.07,-0.125 -0.122,-0.261 -0.142,-0.403 -0.017,-0.127 -0.013,-0.254 0.02,-0.378 0.033,-0.121 0.091,-0.23 0.169,-0.328 0.086,-0.106 0.192,-0.193 0.307,-0.264l0 0zm0.91 0.316c-0.079,-0.028 -0.164,-0.035 -0.248,-0.029 -0.097,0.007 -0.187,0.041 -0.271,0.092 -0.115,0.072 -0.209,0.168 -0.245,0.303 -0.037,0.137 0.005,0.273 0.076,0.391 0.073,0.124 0.176,0.237 0.323,0.261 0.142,0.022 0.276,-0.024 0.396,-0.098 0.108,-0.067 0.184,-0.16 0.217,-0.284 0.032,-0.123 0.009,-0.237 -0.059,-0.343 -0.063,-0.098 -0.126,-0.196 -0.189,-0.293l0 0zm-0.903 -1.341c-0.01,-0.015 -0.02,-0.03 -0.029,-0.045 -0.096,-0.019 -0.197,-0.068 -0.282,-0.115 -0.124,-0.07 -0.219,-0.181 -0.294,-0.3 -0.059,-0.095 -0.104,-0.199 -0.126,-0.309 -0.02,-0.1 -0.023,-0.201 -0.004,-0.3 0.017,-0.097 0.054,-0.186 0.107,-0.267 0.054,-0.084 0.124,-0.154 0.207,-0.209 0.083,-0.056 0.172,-0.103 0.266,-0.133 0.075,-0.023 0.156,-0.041 0.233,-0.039 0.056,0.149 0.111,0.299 0.165,0.449 -0.044,0.007 -0.088,0.018 -0.13,0.031 -0.049,0.015 -0.095,0.039 -0.138,0.067 -0.08,0.055 -0.136,0.128 -0.154,0.225 -0.02,0.111 0.032,0.225 0.092,0.315 0.065,0.1 0.148,0.184 0.253,0.243 0.07,0.04 0.161,0.086 0.241,0.101 -0.134,0.097 -0.27,0.192 -0.407,0.286zm1.912 -0.753c0.228,0.3 0.457,0.6 0.685,0.9 0.22,-0.168 0.437,-0.339 0.652,-0.514 -0.238,-0.292 -0.476,-0.585 -0.714,-0.878 -0.205,0.167 -0.413,0.331 -0.623,0.492l0 0zm1.256 1.648c-0.006,0.041 -0.031,0.091 -0.051,0.127 -0.035,0.064 -0.093,0.118 -0.151,0.161 -0.068,0.05 -0.143,0.086 -0.224,0.107 -0.081,0.022 -0.164,0.027 -0.246,0.017 -0.085,-0.01 -0.165,-0.04 -0.238,-0.084 -0.082,-0.051 -0.149,-0.12 -0.205,-0.199 -0.06,-0.085 -0.107,-0.189 -0.086,-0.295 0.015,-0.076 0.045,-0.15 0.109,-0.196 0.007,-0.004 0.013,-0.01 0.02,-0.015 -0.221,-0.305 -0.443,-0.611 -0.664,-0.916 -0.131,0.095 -0.262,0.188 -0.394,0.281 -0.097,-0.14 -0.195,-0.281 -0.292,-0.421 0.773,-0.538 1.515,-1.12 2.221,-1.744 0.113,0.128 0.226,0.256 0.339,0.384 -0.102,0.09 -0.205,0.179 -0.308,0.267 0.642,0.752 1.284,1.504 1.926,2.255 -0.171,0.146 -0.344,0.29 -0.519,0.432 -0.277,-0.341 -0.553,-0.681 -0.83,-1.022 -0.219,0.178 -0.44,0.352 -0.665,0.524 0.086,0.112 0.172,0.225 0.258,0.337l0 0zm1.428 -4.777c0.849,0.798 1.697,1.595 2.545,2.393 -0.155,0.165 -0.313,0.329 -0.473,0.49 -0.828,-0.818 -1.656,-1.637 -2.485,-2.454 0.14,-0.142 0.277,-0.285 0.413,-0.429l0 0zm1.225 -1.405c0.906,0.731 1.812,1.463 2.718,2.194 -0.144,0.178 -0.289,0.354 -0.437,0.528 -0.888,-0.753 -1.776,-1.506 -2.664,-2.259 0.13,-0.153 0.257,-0.307 0.383,-0.463z"/>
    </g>
    <path class="fil2" d="M62.821 51.345c-4.941,6.123 -12.388,9.682 -20.255,9.682 -7.963,0 -15.487,-3.645 -20.423,-9.893"/>
    <g>
     <polygon class="fil5" points="32.947,23.58 52.448,23.434 42.719,18.478 "/>
     <polygon class="fil5" points="33.163,34.972 52.031,34.971 52.014,33.501 33.163,33.501 "/>
     <path class="fil5" d="M47.231 25.024c-0.05,-0.141 -0.297,-0.099 -0.476,-0.1l-0.877 0c-0.293,-0.001 -0.217,0.137 -0.217,0.632 0,0.672 -0.021,6.816 0.014,6.91 0.055,0.153 0.246,0.113 0.461,0.112l0.877 0c0.078,-0.004 0.097,-0.015 0.143,-0.056l0.045 -0.041c0.047,-0.053 0.03,-0.164 0.03,-0.257l0 -7.2 0 0z"/>
     <path class="fil5" d="M44.718 32.508c0.028,-0.346 0.005,-0.787 0.005,-1.143l0 -3.437c0,-0.305 0.018,-2.714 0.001,-2.887 -0.01,-0.091 -0.064,-0.12 -0.167,-0.119l-1.137 0.002c-0.138,-0.004 -0.151,-0.001 -0.189,0.047 -0.065,0.083 -0.027,5.971 -0.027,6.892 0,0.771 -0.105,0.702 0.44,0.702 0.19,0 0.379,0 0.568,0 0.222,0 0.385,0.029 0.506,-0.057l0 0z"/>
     <path class="fil5" d="M38.25 32.482c0.097,0.02 0.119,0.054 0.238,0.057l1.13 -0.008c0.043,-0.011 0.065,-0.025 0.086,-0.054 0.051,-0.074 0.023,-0.566 0.023,-0.682l0 -4.537c0,-0.752 0.015,-1.519 -0.002,-2.268 -0.16,-0.11 -0.117,-0.054 -0.324,-0.052l-0.809 0c-0.258,-0.002 -0.228,-0.027 -0.345,0.052l0.003 7.492 0 0z"/>
     <path class="fil5" d="M48.214 32.467c0.13,0.091 0.123,0.071 0.328,0.071l0.791 0c0.249,0 0.211,0.023 0.343,-0.056 0.03,-0.598 0.003,-1.268 0.003,-1.873l0 -5.397c0.001,-0.224 0.016,-0.248 -0.191,-0.248l-0.585 0.002c-0.13,0.001 -0.266,0.006 -0.396,0.002 -0.079,-0.002 -0.11,-0.022 -0.171,-0.019 -0.061,0.002 -0.096,0.013 -0.123,0.075l0.001 7.443 0 0z"/>
     <path class="fil5" d="M37.223 24.967c-0.057,-0.025 -0.935,-0.004 -1.106,-0.001 -0.293,0.003 -0.318,-0.124 -0.317,0.229l0 2.784c0,1.493 -0.023,3.003 0.001,4.493 0.042,0.016 0.036,0.009 0.051,0.051l1.312 -0.004c0.042,-0.011 0.007,0 0.038,-0.019 0.094,-0.055 0.039,-1.65 0.039,-1.891 0,-0.795 0.027,-5.541 -0.018,-5.642l0 0z"/>
     <path class="fil5" d="M40.788 32.469l0.365 0.027c0.219,0.007 0.895,0.069 1.04,-0.049 0.026,-2.14 -0.002,-4.37 0.001,-6.53 0,-0.155 0,-0.309 0,-0.464 0,-0.08 0,-0.16 0.001,-0.241 0.001,-0.037 0.002,-0.084 0,-0.121 -0.006,-0.083 -0.011,-0.093 -0.057,-0.111 -0.029,-0.011 -0.001,-0.005 -0.042,-0.012 -0.024,-0.005 -0.059,-0.006 -0.084,-0.005l-0.894 0.016c-0.084,0 -0.111,-0.01 -0.172,-0.017 -0.092,-0.009 -0.087,0.01 -0.162,0.021l0.004 7.486 0 0z"/>
    </g>
    <circle class="fil6" cx="42.592" cy="36.006" r="3.807"/>
    <g>
     <path class="fil7" d="M34.934 40.022c-0.003,-0.003 -0.007,-0.005 -0.01,-0.007 0,0 -0.042,1.953 1.638,2.864 1.679,0.912 1.679,2.649 1.679,2.649 0,0 -3.594,-1.91 -5.331,-5.686 -1.738,-3.776 -1.817,-3.516 -1.817,-3.516 -0.106,0.35 0.085,1.042 0.128,1.392 0.409,3.267 1.503,6.26 3.611,8.684 2.02,2.323 4.485,3.752 6.752,4.805 -0.011,-0.005 0.315,-1.379 0.326,-1.469 0.275,-2.056 -0.208,-4.568 -1.598,-6.059 -1.451,-1.557 -3.622,-2.569 -5.378,-3.657l0 0z"/>
     <path class="fil7" d="M52.008 39.841c-1.738,3.776 -5.332,5.686 -5.332,5.686 0,0 0,-1.736 1.68,-2.648 1.68,-0.911 1.637,-2.864 1.637,-2.864 -0.003,0.002 -0.007,0.004 -0.01,0.006 -1.757,1.089 -3.927,2.101 -5.377,3.658 -1.391,1.491 -1.874,4.003 -1.6,6.059 0.012,0.09 0.338,1.464 0.327,1.469 2.267,-1.053 4.733,-2.482 6.752,-4.805 2.108,-2.425 3.202,-5.418 3.611,-8.685 0.044,-0.349 0.234,-1.042 0.128,-1.391 0,0 -0.079,-0.26 -1.816,3.515l0 0z"/>
     <g>
      <path class="fil7" d="M44.449 42.03c0.7,-0.631 1.531,-1.18 2.414,-1.681 1.402,-0.796 2.083,-2.341 1.641,-3.805 -0.007,-0.022 -0.014,-0.045 -0.021,-0.067 -0.791,0.786 -1.978,1.668 -3.756,2.581 -0.004,0.002 -0.007,0.004 -0.011,0.006 -0.135,0.083 -0.273,0.166 -0.42,0.247 -0.867,0.479 -1.404,1.107 -1.72,1.787 -0.316,-0.68 -0.853,-1.308 -1.721,-1.787 -0.147,-0.081 -0.285,-0.164 -0.419,-0.247 -0.004,-0.002 -0.007,-0.004 -0.011,-0.006 -1.779,-0.913 -2.966,-1.795 -3.756,-2.581 -0.007,0.022 -0.015,0.045 -0.022,0.067 -0.441,1.464 0.239,3.009 1.641,3.805 0.884,0.501 1.714,1.05 2.415,1.681 0.768,0.692 1.32,1.588 1.674,2.56 0.054,0.234 0.114,0.449 0.175,0.64 0.022,-0.001 -0.002,0 0.021,-0.001 0.001,-0.003 0.002,-0.007 0.003,-0.01 0.001,0.003 0.002,0.007 0.002,0.01 0.023,0.001 -0.001,0 0.022,0.001 0.06,-0.191 0.121,-0.407 0.175,-0.64 0.353,-0.972 0.906,-1.868 1.674,-2.56l0 0z"/>
      <path class="fil7" d="M40.12 35.777c0,1.389 1.127,2.516 2.517,2.516 1.39,0 2.517,-1.127 2.517,-2.516 0,-1.39 -1.127,-2.517 -2.517,-2.517 -1.39,0 -2.517,1.127 -2.517,2.517z"/>
     </g>
    </g>
    <path class="fil7" d="M8.478 36.508c-0.221,0 -0.42,-0.038 -0.597,-0.113 -0.177,-0.076 -0.317,-0.185 -0.42,-0.327 -0.103,-0.143 -0.156,-0.311 -0.159,-0.504l0.681 0c0.01,0.13 0.056,0.233 0.139,0.309 0.083,0.075 0.197,0.113 0.342,0.113 0.149,0 0.265,-0.035 0.35,-0.106 0.084,-0.072 0.127,-0.165 0.127,-0.28 0,-0.094 -0.029,-0.17 -0.086,-0.231 -0.058,-0.061 -0.13,-0.108 -0.216,-0.143 -0.086,-0.035 -0.205,-0.073 -0.356,-0.116 -0.206,-0.061 -0.373,-0.12 -0.502,-0.179 -0.129,-0.059 -0.239,-0.149 -0.331,-0.268 -0.092,-0.12 -0.138,-0.279 -0.138,-0.479 0,-0.188 0.046,-0.351 0.14,-0.49 0.094,-0.139 0.226,-0.246 0.395,-0.32 0.17,-0.074 0.363,-0.111 0.581,-0.111 0.327,0 0.592,0.079 0.796,0.238 0.205,0.159 0.318,0.38 0.339,0.665l-0.699 0c-0.006,-0.109 -0.052,-0.199 -0.139,-0.27 -0.086,-0.071 -0.2,-0.107 -0.342,-0.107 -0.125,0 -0.224,0.032 -0.298,0.095 -0.074,0.064 -0.111,0.156 -0.111,0.277 0,0.085 0.028,0.155 0.084,0.212 0.056,0.055 0.125,0.101 0.209,0.135 0.083,0.035 0.2,0.075 0.352,0.121 0.205,0.06 0.373,0.121 0.503,0.181 0.131,0.061 0.242,0.152 0.336,0.273 0.094,0.121 0.141,0.28 0.141,0.476 0,0.17 -0.044,0.327 -0.131,0.472 -0.088,0.146 -0.217,0.261 -0.386,0.348 -0.17,0.086 -0.371,0.129 -0.604,0.129l0 0zm2.305 -3.2l0 3.168 -0.635 0 0 -3.168 0.635 0zm3.337 3.168l-0.636 0 -1.439 -2.174 0 2.174 -0.635 0 0 -3.172 0.635 0 1.439 2.178 0 -2.178 0.636 0 0 3.172zm0.471 -1.588c0,-0.312 0.071,-0.592 0.212,-0.838 0.14,-0.247 0.332,-0.439 0.576,-0.576 0.243,-0.138 0.517,-0.207 0.819,-0.207 0.354,0 0.665,0.091 0.93,0.272 0.267,0.182 0.453,0.433 0.559,0.754l-0.731 0c-0.072,-0.151 -0.175,-0.265 -0.306,-0.34 -0.132,-0.076 -0.284,-0.114 -0.456,-0.114 -0.185,0 -0.349,0.043 -0.493,0.13 -0.143,0.086 -0.255,0.207 -0.336,0.365 -0.08,0.157 -0.12,0.342 -0.12,0.554 0,0.209 0.04,0.392 0.12,0.551 0.08,0.159 0.193,0.281 0.336,0.367 0.144,0.087 0.308,0.13 0.493,0.13 0.172,0 0.324,-0.039 0.456,-0.115 0.131,-0.078 0.234,-0.192 0.306,-0.344l0.731 0c-0.106,0.324 -0.291,0.576 -0.556,0.756 -0.265,0.181 -0.576,0.27 -0.933,0.27 -0.303,0 -0.576,-0.068 -0.819,-0.206 -0.244,-0.137 -0.436,-0.329 -0.576,-0.574 -0.141,-0.246 -0.212,-0.524 -0.212,-0.835l0 0zm4.276 -1.067l0 0.794 1.067 0 0 0.504 -1.067 0 0 0.84 1.203 0 0 0.517 -1.838 0 0 -3.172 1.838 0 0 0.517 -1.203 0 0 0z"/>
    <path class="fil7" d="M66.613 33.819l0 -0.586 1.094 0 0 3.309 -0.654 0 0 -2.723 -0.44 0zm2.456 1.793c0.024,0.133 0.079,0.235 0.166,0.306 0.086,0.071 0.202,0.107 0.347,0.107 0.188,0 0.324,-0.079 0.408,-0.234 0.085,-0.156 0.127,-0.418 0.127,-0.788 -0.07,0.097 -0.167,0.173 -0.293,0.227 -0.125,0.055 -0.26,0.082 -0.406,0.082 -0.193,0 -0.368,-0.04 -0.524,-0.12 -0.156,-0.08 -0.279,-0.2 -0.37,-0.359 -0.091,-0.159 -0.136,-0.352 -0.136,-0.579 0,-0.336 0.1,-0.603 0.299,-0.8 0.2,-0.199 0.473,-0.298 0.817,-0.298 0.43,0 0.733,0.138 0.911,0.413 0.176,0.276 0.265,0.69 0.265,1.244 0,0.393 -0.034,0.715 -0.102,0.967 -0.068,0.251 -0.185,0.441 -0.349,0.571 -0.166,0.13 -0.39,0.195 -0.675,0.195 -0.224,0 -0.414,-0.043 -0.571,-0.128 -0.158,-0.087 -0.278,-0.201 -0.361,-0.341 -0.084,-0.141 -0.131,-0.296 -0.143,-0.465l0.59 0zm0.48 -0.817c0.158,0 0.282,-0.049 0.373,-0.146 0.091,-0.096 0.136,-0.227 0.136,-0.39 0,-0.179 -0.047,-0.317 -0.143,-0.416 -0.095,-0.098 -0.224,-0.147 -0.388,-0.147 -0.163,0 -0.292,0.051 -0.388,0.152 -0.095,0.102 -0.143,0.236 -0.143,0.402 0,0.16 0.046,0.291 0.138,0.392 0.093,0.102 0.231,0.153 0.415,0.153l0 0zm2.361 0.817c0.024,0.133 0.079,0.235 0.166,0.306 0.086,0.071 0.202,0.107 0.347,0.107 0.188,0 0.324,-0.079 0.408,-0.234 0.085,-0.156 0.127,-0.418 0.127,-0.788 -0.07,0.097 -0.167,0.173 -0.292,0.227 -0.126,0.055 -0.261,0.082 -0.407,0.082 -0.193,0 -0.368,-0.04 -0.524,-0.12 -0.156,-0.08 -0.279,-0.2 -0.37,-0.359 -0.091,-0.159 -0.136,-0.352 -0.136,-0.579 0,-0.336 0.1,-0.603 0.299,-0.8 0.201,-0.199 0.473,-0.298 0.818,-0.298 0.429,0 0.733,0.138 0.91,0.413 0.176,0.276 0.265,0.69 0.265,1.244 0,0.393 -0.034,0.715 -0.102,0.967 -0.068,0.251 -0.185,0.441 -0.349,0.571 -0.166,0.13 -0.39,0.195 -0.675,0.195 -0.224,0 -0.414,-0.043 -0.571,-0.128 -0.158,-0.087 -0.278,-0.201 -0.361,-0.341 -0.083,-0.141 -0.131,-0.296 -0.143,-0.465l0.59 0 0 0zm0.481 -0.817c0.157,0 0.282,-0.049 0.372,-0.146 0.091,-0.096 0.137,-0.227 0.137,-0.39 0,-0.179 -0.048,-0.317 -0.143,-0.416 -0.096,-0.098 -0.225,-0.147 -0.389,-0.147 -0.163,0 -0.292,0.051 -0.388,0.152 -0.095,0.102 -0.143,0.236 -0.143,0.402 0,0.16 0.046,0.291 0.139,0.392 0.092,0.102 0.23,0.153 0.415,0.153l0 0zm2.179 -0.005c-0.303,-0.158 -0.454,-0.401 -0.454,-0.73 0,-0.164 0.042,-0.313 0.124,-0.448 0.083,-0.135 0.209,-0.242 0.377,-0.322 0.168,-0.08 0.373,-0.12 0.615,-0.12 0.242,0 0.447,0.04 0.615,0.12 0.168,0.08 0.294,0.187 0.377,0.322 0.083,0.135 0.125,0.284 0.125,0.448 0,0.166 -0.041,0.312 -0.123,0.437 -0.081,0.126 -0.19,0.223 -0.326,0.293 0.166,0.073 0.296,0.178 0.39,0.318 0.094,0.139 0.141,0.304 0.141,0.494 0,0.206 -0.052,0.386 -0.157,0.538 -0.104,0.153 -0.247,0.27 -0.429,0.352 -0.182,0.082 -0.385,0.123 -0.613,0.123 -0.226,0 -0.43,-0.041 -0.61,-0.123 -0.18,-0.081 -0.322,-0.199 -0.427,-0.352 -0.104,-0.152 -0.156,-0.332 -0.156,-0.538 0,-0.19 0.046,-0.356 0.14,-0.497 0.094,-0.14 0.224,-0.245 0.391,-0.315l0 0zm1.161 -0.64c0,-0.148 -0.044,-0.263 -0.133,-0.345 -0.089,-0.081 -0.212,-0.122 -0.366,-0.122 -0.151,0 -0.271,0.041 -0.36,0.122 -0.09,0.082 -0.135,0.198 -0.135,0.35 0,0.135 0.047,0.245 0.139,0.326 0.092,0.082 0.211,0.122 0.356,0.122 0.146,0 0.265,-0.041 0.359,-0.124 0.094,-0.083 0.14,-0.193 0.14,-0.329l0 0zm-0.499 0.917c-0.172,0 -0.312,0.044 -0.42,0.132 -0.107,0.087 -0.161,0.213 -0.161,0.377 0,0.151 0.053,0.274 0.157,0.369 0.104,0.096 0.246,0.143 0.424,0.143 0.179,0 0.32,-0.048 0.423,-0.145 0.102,-0.097 0.154,-0.22 0.154,-0.368 0,-0.16 -0.053,-0.285 -0.159,-0.374 -0.106,-0.09 -0.245,-0.134 -0.418,-0.134l0 0z"/>
   </g>
   <path class="fil0" d="M108.564 25.391l0 32.687 -7.833 0 0 -32.687 7.833 0zm25.701 26.913l-12.003 0 -1.924 5.774 -8.2 0 11.636 -32.687 9.071 0 11.636 32.687 -8.292 0 -1.924 -5.774zm-2.016 -6.146l-3.986 -11.967 -3.939 11.967 7.925 0 0 0zm14.431 -4.47c0,-3.229 0.687,-6.108 2.062,-8.638 1.374,-2.53 3.291,-4.501 5.75,-5.913 2.458,-1.413 5.245,-2.119 8.36,-2.119 3.818,0 7.086,1.025 9.804,3.073 2.718,2.049 4.535,4.843 5.452,8.382l-8.613 0c-0.641,-1.366 -1.55,-2.406 -2.726,-3.12 -1.176,-0.714 -2.512,-1.071 -4.008,-1.071 -2.413,0 -4.368,0.854 -5.865,2.561 -1.496,1.707 -2.244,3.989 -2.244,6.845 0,2.856 0.748,5.137 2.244,6.844 1.497,1.708 3.452,2.561 5.865,2.561 1.496,0 2.832,-0.357 4.008,-1.07 1.176,-0.714 2.085,-1.754 2.726,-3.12l8.613 0c-0.917,3.539 -2.734,6.325 -5.452,8.358 -2.718,2.033 -5.986,3.05 -9.804,3.05 -3.115,0 -5.902,-0.707 -8.36,-2.119 -2.459,-1.412 -4.376,-3.375 -5.75,-5.89 -1.374,-2.514 -2.062,-5.386 -2.062,-8.614zm47.874 16.716c-2.351,0 -4.459,-0.388 -6.322,-1.164 -1.863,-0.776 -3.352,-1.925 -4.467,-3.446 -1.114,-1.521 -1.702,-3.352 -1.763,-5.494l8.337 0c0.123,1.21 0.535,2.134 1.238,2.77 0.702,0.636 1.618,0.955 2.748,0.955 1.16,0 2.077,-0.272 2.749,-0.815 0.672,-0.543 1.008,-1.296 1.008,-2.258 0,-0.807 -0.267,-1.475 -0.802,-2.002 -0.534,-0.528 -1.191,-0.963 -1.969,-1.304 -0.78,-0.342 -1.887,-0.73 -3.322,-1.164 -2.077,-0.652 -3.772,-1.304 -5.085,-1.956 -1.313,-0.652 -2.444,-1.614 -3.391,-2.887 -0.946,-1.273 -1.419,-2.934 -1.419,-4.982 0,-3.042 1.084,-5.425 3.252,-7.148 2.169,-1.722 4.993,-2.584 8.475,-2.584 3.543,0 6.399,0.862 8.567,2.584 2.169,1.723 3.329,4.121 3.482,7.194l-8.475 0c-0.061,-1.055 -0.443,-1.885 -1.145,-2.491 -0.703,-0.605 -1.604,-0.907 -2.703,-0.907 -0.948,0 -1.711,0.255 -2.291,0.767 -0.581,0.513 -0.871,1.25 -0.871,2.213 0,1.055 0.489,1.878 1.466,2.467 0.978,0.59 2.505,1.226 4.582,1.909 2.077,0.714 3.764,1.397 5.062,2.049 1.298,0.652 2.421,1.599 3.367,2.84 0.947,1.242 1.421,2.841 1.421,4.796 0,1.863 -0.466,3.555 -1.398,5.076 -0.931,1.521 -2.283,2.731 -4.054,3.632 -1.771,0.9 -3.864,1.35 -6.277,1.35l0 0zm28.588 -33.013c3.389,0 6.352,0.683 8.887,2.048 2.535,1.366 4.498,3.283 5.887,5.751 1.39,2.468 2.084,5.316 2.084,8.544 0,3.198 -0.694,6.038 -2.084,8.521 -1.389,2.484 -3.36,4.408 -5.91,5.774 -2.55,1.366 -5.505,2.049 -8.864,2.049l-12.049 0 0 -32.687 12.049 0zm-0.505 25.796c2.963,0 5.269,-0.823 6.918,-2.468 1.649,-1.645 2.474,-3.974 2.474,-6.985 0,-3.011 -0.825,-5.354 -2.474,-7.031 -1.649,-1.676 -3.955,-2.514 -6.918,-2.514l-3.71 0 0 18.998 3.71 0z"/>
   <path class="fil1" d="M103.24 10.699c0.774,0 1.452,0.144 2.034,0.433 0.583,0.289 1.032,0.703 1.349,1.244 0.318,0.54 0.476,1.171 0.476,1.891 0,0.72 -0.159,1.345 -0.476,1.876 -0.317,0.529 -0.767,0.936 -1.349,1.217 -0.582,0.283 -1.26,0.424 -2.034,0.424l-2.374 0 0 -7.085 2.374 0zm0 6.137c0.851,0 1.503,-0.224 1.956,-0.673 0.453,-0.448 0.68,-1.08 0.68,-1.896 0,-0.822 -0.227,-1.464 -0.68,-1.927 -0.453,-0.462 -1.105,-0.693 -1.956,-0.693l-1.182 0 0 5.189 1.182 0 0 0zm6.233 -3.853c0.174,-0.286 0.406,-0.509 0.696,-0.668 0.289,-0.16 0.632,-0.24 1.03,-0.24l0 1.203 -0.304 0c-0.467,0 -0.821,0.115 -1.061,0.347 -0.24,0.231 -0.361,0.632 -0.361,1.203l0 2.956 -1.192 0 0 -5.617 1.192 0 0 0.816 0 0zm3.305 4.872c-0.216,0 -0.398,-0.071 -0.544,-0.214 -0.146,-0.142 -0.22,-0.319 -0.22,-0.53 0,-0.211 0.074,-0.387 0.22,-0.53 0.146,-0.143 0.328,-0.214 0.544,-0.214 0.209,0 0.387,0.072 0.533,0.214 0.147,0.143 0.22,0.319 0.22,0.53 0,0.211 -0.073,0.388 -0.22,0.53 -0.146,0.143 -0.324,0.214 -0.533,0.214zm7.133 -7.156c0.773,0 1.451,0.144 2.033,0.433 0.583,0.289 1.032,0.703 1.349,1.244 0.317,0.54 0.476,1.171 0.476,1.891 0,0.72 -0.159,1.345 -0.476,1.876 -0.317,0.529 -0.766,0.936 -1.349,1.217 -0.582,0.283 -1.26,0.424 -2.033,0.424l-2.374 0 0 -7.085 2.374 0zm0 6.137c0.85,0 1.502,-0.224 1.955,-0.673 0.453,-0.448 0.68,-1.08 0.68,-1.896 0,-0.822 -0.227,-1.464 -0.68,-1.927 -0.453,-0.462 -1.105,-0.693 -1.955,-0.693l-1.182 0 0 5.189 1.182 0 0 0zm5.521 1.019c-0.216,0 -0.397,-0.071 -0.544,-0.214 -0.146,-0.142 -0.219,-0.319 -0.219,-0.53 0,-0.211 0.073,-0.387 0.219,-0.53 0.147,-0.143 0.328,-0.214 0.544,-0.214 0.209,0 0.387,0.072 0.534,0.214 0.146,0.143 0.219,0.319 0.219,0.53 0,0.211 -0.073,0.388 -0.219,0.53 -0.147,0.143 -0.325,0.214 -0.534,0.214zm10.145 -7.156l-2.406 4.516 0 2.569 -1.192 0 0 -2.569 -2.416 -4.516 1.328 0 1.684 3.476 1.684 -3.476 1.318 0zm1.422 7.156c-0.216,0 -0.398,-0.071 -0.544,-0.214 -0.146,-0.142 -0.22,-0.319 -0.22,-0.53 0,-0.211 0.074,-0.387 0.22,-0.53 0.146,-0.143 0.328,-0.214 0.544,-0.214 0.209,0 0.387,0.072 0.533,0.214 0.147,0.143 0.22,0.319 0.22,0.53 0,0.211 -0.073,0.388 -0.22,0.53 -0.146,0.143 -0.324,0.214 -0.533,0.214zm9.841 -5.046c0,0.36 -0.088,0.7 -0.262,1.019 -0.174,0.32 -0.453,0.58 -0.837,0.781 -0.383,0.2 -0.874,0.3 -1.474,0.3l-1.318 0 0 2.875 -1.192 0 0 -7.085 2.51 0c0.558,0 1.03,0.093 1.417,0.28 0.387,0.187 0.676,0.441 0.868,0.759 0.192,0.321 0.288,0.677 0.288,1.071zm-2.573 1.152c0.453,0 0.792,-0.1 1.014,-0.301 0.224,-0.2 0.335,-0.484 0.335,-0.851 0,-0.775 -0.45,-1.162 -1.349,-1.162l-1.318 0 0 2.314 1.318 0 0 0zm3.315 0.989c0,-0.564 0.121,-1.064 0.361,-1.498 0.241,-0.436 0.569,-0.773 0.983,-1.015 0.415,-0.241 0.874,-0.362 1.376,-0.362 0.453,0 0.848,0.087 1.187,0.26 0.337,0.174 0.608,0.389 0.81,0.648l0 -0.816 1.202 0 0 5.617 -1.202 0 0 -0.836c-0.202,0.265 -0.478,0.486 -0.826,0.663 -0.349,0.176 -0.746,0.265 -1.193,0.265 -0.494,0 -0.947,-0.124 -1.359,-0.372 -0.411,-0.248 -0.737,-0.595 -0.978,-1.04 -0.24,-0.445 -0.361,-0.95 -0.361,-1.514l0 0zm4.717 0.021c0,-0.388 -0.082,-0.724 -0.246,-1.01 -0.163,-0.286 -0.378,-0.503 -0.643,-0.652 -0.265,-0.15 -0.551,-0.225 -0.857,-0.225 -0.307,0 -0.593,0.074 -0.858,0.219 -0.265,0.147 -0.479,0.361 -0.643,0.643 -0.164,0.282 -0.246,0.616 -0.246,1.004 0,0.387 0.082,0.727 0.246,1.019 0.164,0.292 0.38,0.515 0.648,0.668 0.269,0.153 0.553,0.229 0.853,0.229 0.306,0 0.592,-0.075 0.857,-0.224 0.265,-0.15 0.48,-0.369 0.643,-0.657 0.164,-0.289 0.246,-0.628 0.246,-1.015l0 0.001zm4.162 -1.856l0 3.109c0,0.211 0.051,0.362 0.152,0.454 0.101,0.092 0.273,0.137 0.518,0.137l0.732 0 0 0.969 -0.942 0c-0.537,0 -0.948,-0.122 -1.233,-0.367 -0.286,-0.245 -0.43,-0.642 -0.43,-1.193l0 -3.109 -0.68 0 0 -0.948 0.68 0 0 -1.396 1.203 0 0 1.396 1.402 0 0 0.948 -1.402 0 0 0zm3.106 -1.693c-0.216,0 -0.397,-0.07 -0.543,-0.213 -0.147,-0.143 -0.22,-0.32 -0.22,-0.531 0,-0.21 0.073,-0.387 0.22,-0.529 0.146,-0.143 0.327,-0.215 0.543,-0.215 0.21,0 0.387,0.072 0.534,0.215 0.146,0.142 0.219,0.319 0.219,0.529 0,0.211 -0.073,0.388 -0.219,0.531 -0.146,0.143 -0.324,0.213 -0.534,0.213zm0.586 0.745l0 5.617 -1.192 0 0 -5.617 1.192 0zm2.761 -1.927l0 7.544 -1.192 0 0 -7.544 1.192 0zm9.37 2.569c0,0.36 -0.087,0.7 -0.261,1.019 -0.174,0.32 -0.454,0.58 -0.837,0.781 -0.383,0.2 -0.875,0.3 -1.475,0.3l-1.317 0 0 2.875 -1.192 0 0 -7.085 2.509 0c0.558,0 1.031,0.093 1.418,0.28 0.387,0.187 0.676,0.441 0.868,0.759 0.191,0.321 0.287,0.677 0.287,1.071zm-2.573 1.152c0.454,0 0.792,-0.1 1.015,-0.301 0.223,-0.2 0.335,-0.484 0.335,-0.851 0,-0.775 -0.45,-1.162 -1.35,-1.162l-1.317 0 0 2.314 1.317 0 0 0zm4.906 -0.978c0.174,-0.286 0.406,-0.509 0.695,-0.668 0.289,-0.16 0.633,-0.24 1.03,-0.24l0 1.203 -0.303 0c-0.468,0 -0.821,0.115 -1.062,0.347 -0.24,0.231 -0.36,0.632 -0.36,1.203l0 2.956 -1.193 0 0 -5.617 1.193 0 0 0.816 0 0zm2.426 1.967c0,-0.564 0.12,-1.064 0.361,-1.498 0.24,-0.436 0.568,-0.773 0.983,-1.015 0.414,-0.241 0.872,-0.362 1.375,-0.362 0.453,0 0.849,0.087 1.187,0.26 0.338,0.174 0.608,0.389 0.81,0.648l0 -0.816 1.203 0 0 5.617 -1.203 0 0 -0.836c-0.202,0.265 -0.477,0.486 -0.826,0.663 -0.348,0.176 -0.746,0.265 -1.192,0.265 -0.495,0 -0.948,-0.124 -1.36,-0.372 -0.411,-0.248 -0.737,-0.595 -0.977,-1.04 -0.241,-0.445 -0.361,-0.95 -0.361,-1.514l0 0zm4.716 0.021c0,-0.388 -0.082,-0.724 -0.245,-1.01 -0.165,-0.286 -0.379,-0.503 -0.644,-0.652 -0.265,-0.15 -0.551,-0.225 -0.857,-0.225 -0.307,0 -0.592,0.074 -0.858,0.219 -0.265,0.147 -0.479,0.361 -0.643,0.643 -0.164,0.282 -0.246,0.616 -0.246,1.004 0,0.387 0.082,0.727 0.246,1.019 0.164,0.292 0.38,0.515 0.648,0.668 0.269,0.153 0.553,0.229 0.853,0.229 0.306,0 0.592,-0.075 0.857,-0.224 0.265,-0.15 0.479,-0.369 0.644,-0.657 0.163,-0.289 0.245,-0.628 0.245,-1.015l0 0.001zm4.162 -1.856l0 3.109c0,0.211 0.051,0.362 0.152,0.454 0.101,0.092 0.274,0.137 0.518,0.137l0.732 0 0 0.969 -0.941 0c-0.537,0 -0.948,-0.122 -1.234,-0.367 -0.286,-0.245 -0.429,-0.642 -0.429,-1.193l0 -3.109 -0.68 0 0 -0.948 0.68 0 0 -1.396 1.202 0 0 1.396 1.402 0 0 0.948 -1.402 0 0 0zm3.107 -1.693c-0.216,0 -0.398,-0.07 -0.544,-0.213 -0.147,-0.143 -0.22,-0.32 -0.22,-0.531 0,-0.21 0.073,-0.387 0.22,-0.529 0.146,-0.143 0.328,-0.215 0.544,-0.215 0.209,0 0.387,0.072 0.533,0.215 0.147,0.142 0.22,0.319 0.22,0.529 0,0.211 -0.073,0.388 -0.22,0.531 -0.146,0.143 -0.324,0.213 -0.533,0.213zm0.585 0.745l0 5.617 -1.192 0 0 -5.617 1.192 0zm3.66 5.708c-0.453,0 -0.858,-0.079 -1.218,-0.239 -0.359,-0.16 -0.643,-0.377 -0.852,-0.652 -0.209,-0.275 -0.321,-0.583 -0.335,-0.923l1.234 0c0.021,0.238 0.138,0.437 0.35,0.597 0.214,0.159 0.48,0.239 0.801,0.239 0.334,0 0.594,-0.063 0.779,-0.188 0.185,-0.126 0.277,-0.287 0.277,-0.485 0,-0.211 -0.103,-0.367 -0.309,-0.469 -0.205,-0.102 -0.531,-0.214 -0.978,-0.336 -0.431,-0.116 -0.783,-0.228 -1.056,-0.336 -0.271,-0.109 -0.507,-0.276 -0.705,-0.5 -0.199,-0.224 -0.299,-0.52 -0.299,-0.887 0,-0.299 0.091,-0.572 0.272,-0.821 0.181,-0.248 0.441,-0.443 0.78,-0.586 0.337,-0.143 0.726,-0.214 1.165,-0.214 0.656,0 1.184,0.161 1.585,0.484 0.401,0.323 0.615,0.763 0.643,1.32l-1.192 0c-0.021,-0.251 -0.126,-0.451 -0.314,-0.601 -0.188,-0.149 -0.443,-0.224 -0.764,-0.224 -0.313,0 -0.553,0.057 -0.721,0.173 -0.167,0.116 -0.251,0.268 -0.251,0.459 0,0.149 0.056,0.275 0.167,0.377 0.112,0.102 0.248,0.182 0.408,0.24 0.161,0.057 0.397,0.131 0.712,0.219 0.418,0.108 0.761,0.219 1.03,0.331 0.268,0.112 0.5,0.277 0.695,0.494 0.195,0.218 0.296,0.507 0.303,0.867 0,0.32 -0.091,0.605 -0.272,0.856 -0.181,0.252 -0.437,0.449 -0.768,0.592 -0.332,0.143 -0.72,0.213 -1.167,0.213l0 0zm6.474 -5.8c0.439,0 0.832,0.092 1.176,0.276 0.346,0.183 0.618,0.455 0.816,0.815 0.199,0.361 0.299,0.795 0.299,1.305l0 3.313 -1.182 0 0 -3.14c0,-0.503 -0.129,-0.888 -0.387,-1.157 -0.258,-0.269 -0.61,-0.403 -1.056,-0.403 -0.447,0 -0.801,0.134 -1.062,0.403 -0.262,0.269 -0.392,0.654 -0.392,1.157l0 3.14 -1.193 0 0 -7.544 1.193 0 0 2.58c0.202,-0.239 0.459,-0.422 0.769,-0.551 0.31,-0.129 0.65,-0.194 1.019,-0.194zm5.198 1.04l0 3.109c0,0.211 0.051,0.362 0.152,0.454 0.101,0.092 0.273,0.137 0.517,0.137l0.732 0 0 0.969 -0.941 0c-0.537,0 -0.948,-0.122 -1.234,-0.367 -0.286,-0.245 -0.429,-0.642 -0.429,-1.193l0 -3.109 -0.679 0 0 -0.948 0.679 0 0 -1.396 1.203 0 0 1.396 1.401 0 0 0.948 -1.401 0 0 0zm5.48 -1.04c0.439,0 0.832,0.092 1.177,0.276 0.345,0.183 0.617,0.455 0.815,0.815 0.199,0.361 0.298,0.795 0.298,1.305l0 3.313 -1.181 0 0 -3.14c0,-0.503 -0.13,-0.888 -0.388,-1.157 -0.257,-0.269 -0.61,-0.403 -1.056,-0.403 -0.446,0 -0.8,0.134 -1.061,0.403 -0.261,0.269 -0.392,0.654 -0.392,1.157l0 3.14 -1.193 0 0 -7.544 1.193 0 0 2.58c0.202,-0.239 0.458,-0.422 0.768,-0.551 0.31,-0.129 0.651,-0.194 1.02,-0.194zm3.41 2.875c0,-0.564 0.119,-1.064 0.36,-1.498 0.241,-0.436 0.568,-0.773 0.984,-1.015 0.414,-0.241 0.872,-0.362 1.374,-0.362 0.453,0 0.849,0.087 1.187,0.26 0.339,0.174 0.609,0.389 0.811,0.648l0 -0.816 1.203 0 0 5.617 -1.203 0 0 -0.836c-0.202,0.265 -0.477,0.486 -0.826,0.663 -0.349,0.176 -0.746,0.265 -1.192,0.265 -0.495,0 -0.949,-0.124 -1.36,-0.372 -0.411,-0.248 -0.737,-0.595 -0.978,-1.04 -0.24,-0.445 -0.36,-0.95 -0.36,-1.514l0 0zm4.716 0.021c0,-0.388 -0.082,-0.724 -0.246,-1.01 -0.164,-0.286 -0.378,-0.503 -0.643,-0.652 -0.265,-0.15 -0.55,-0.225 -0.858,-0.225 -0.306,0 -0.592,0.074 -0.857,0.219 -0.265,0.147 -0.48,0.361 -0.643,0.643 -0.164,0.282 -0.246,0.616 -0.246,1.004 0,0.387 0.082,0.727 0.246,1.019 0.163,0.292 0.38,0.515 0.648,0.668 0.269,0.153 0.553,0.229 0.852,0.229 0.308,0 0.593,-0.075 0.858,-0.224 0.265,-0.15 0.479,-0.369 0.643,-0.657 0.164,-0.289 0.246,-0.628 0.246,-1.015l0 0.001zm5.679 -2.896c0.453,0 0.859,0.092 1.218,0.276 0.359,0.183 0.64,0.455 0.842,0.815 0.202,0.361 0.303,0.795 0.303,1.305l0 3.313 -1.182 0 0 -3.14c0,-0.503 -0.129,-0.888 -0.386,-1.157 -0.258,-0.269 -0.611,-0.403 -1.057,-0.403 -0.446,0 -0.8,0.134 -1.061,0.403 -0.262,0.269 -0.392,0.654 -0.392,1.157l0 3.14 -1.193 0 0 -5.617 1.193 0 0 0.642c0.195,-0.231 0.444,-0.411 0.747,-0.54 0.304,-0.129 0.626,-0.194 0.968,-0.194zm4.528 -2.416l-0.125 2.09 -0.816 0 -0.136 -2.09 1.077 0 0 0zm3.242 8.216c-0.453,0 -0.859,-0.079 -1.218,-0.239 -0.359,-0.16 -0.643,-0.377 -0.853,-0.652 -0.209,-0.275 -0.32,-0.583 -0.334,-0.923l1.234 0c0.021,0.238 0.138,0.437 0.35,0.597 0.213,0.159 0.48,0.239 0.8,0.239 0.335,0 0.594,-0.063 0.779,-0.188 0.185,-0.126 0.277,-0.287 0.277,-0.485 0,-0.211 -0.103,-0.367 -0.308,-0.469 -0.206,-0.102 -0.532,-0.214 -0.978,-0.336 -0.432,-0.116 -0.784,-0.228 -1.056,-0.336 -0.272,-0.109 -0.508,-0.276 -0.706,-0.5 -0.199,-0.224 -0.298,-0.52 -0.298,-0.887 0,-0.299 0.09,-0.572 0.272,-0.821 0.181,-0.248 0.44,-0.443 0.779,-0.586 0.338,-0.143 0.727,-0.214 1.166,-0.214 0.656,0 1.184,0.161 1.585,0.484 0.4,0.323 0.615,0.763 0.643,1.32l-1.193 0c-0.02,-0.251 -0.125,-0.451 -0.313,-0.601 -0.189,-0.149 -0.443,-0.224 -0.764,-0.224 -0.313,0 -0.554,0.057 -0.722,0.173 -0.167,0.116 -0.25,0.268 -0.25,0.459 0,0.149 0.055,0.275 0.167,0.377 0.111,0.102 0.247,0.182 0.408,0.24 0.16,0.057 0.397,0.131 0.711,0.219 0.418,0.108 0.762,0.219 1.03,0.331 0.268,0.112 0.5,0.277 0.695,0.494 0.195,0.218 0.296,0.507 0.303,0.867 0,0.32 -0.09,0.605 -0.271,0.856 -0.182,0.252 -0.438,0.449 -0.769,0.592 -0.331,0.143 -0.72,0.213 -1.166,0.213l0 0z"/>
  </g>
 </g>
</svg>
